# xmcd CD database file
#
# Track frame offsets:
#	150
#	3825
#	19997
#	33905
#	50523
#	64856
#	84753
#	112936
#	127082
#	141922
#	158445
#	173549
#	186814
#	207186
#	226646
#	243848
#	263957
#	278783
#	291775
#
# Disc length: 4099 seconds
#
# Revision: 2
# Processed by: cddbd v1.5.2PL0 Copyright (c) Steve Scherf et al.
# Submitted via: CDex 1.51
#
DISCID=f3100113
DTITLE=Ferris MC - Düstere Legenden
DYEAR=2006
DGENRE=Hip-Hop
TTITLE0=Der Anfang vom Ende
TTITLE1=Düstere Legenden
TTITLE2=Unsterblich `04
TTITLE3=Flash for Ferris MC
TTITLE4=Reimemonster feat. Afrob
TTITLE5=Zur Erinnerung
TTITLE6=Popstarz (moonbootica Remix)
TTITLE7=Ferris macht blau
TTITLE8=Return of the Reimemonster (Rockmonster RMX) feat. Afrob
TTITLE9=Feierarlam fest. tobitob
TTITLE10=Spieglein, Spieglein (Beatsucht Remix)
TTITLE11=Gott und Teufel
TTITLE12=Im Zeichen des Freaks
TTITLE13=Chaos feat. Such a Surge, Spezializtz and DJ Stylewarz (tobitob Remix)
TTITLE14=Traumfrau
TTITLE15=Baby, mach ma die Augen zu
TTITLE16=Tanz mit mir
TTITLE17=Hast du Probleme?
TTITLE18=Was wollt ihr mehr (Warped)
EXTD=YEAR: 2006
EXTT0=
EXTT1=
EXTT2=
EXTT3=
EXTT4=
EXTT5=
EXTT6=
EXTT7=
EXTT8=
EXTT9=
EXTT10=
EXTT11=
EXTT12=
EXTT13=
EXTT14=
EXTT15=
EXTT16=
EXTT17=
EXTT18=
PLAYORDER=
